# xmcd CD database file
#
# Track frame offsets:
#	150
#	2665
#	15851
#	31747
#	47921
#	66961
#	75528
#	105738
#	117923
#	128740
#	147510
#	163387
#	176597
#	193599
#
# Disc length: 2780 seconds
#
# Revision: 3
# Processed by: cddbd v1.5PL3 Copyright (c) Steve Scherf et al.
# Submitted via: CDex 1.51
#
DISCID=b50ada0e
DTITLE=dahlia - le mode d'emploi
DYEAR=2003
DGENRE=
TTITLE0=le mode d'emploi
TTITLE1=LENZ 28
TTITLE2=Hotel Margaret
TTITLE3=non finito samba
TTITLE4=世界の果てまで
TTITLE5=smart ball water melon
TTITLE6=snowflake like a chiffon
TTITLE7=Ask me anything about Orange
TTITLE8=green fields
TTITLE9=the measles
TTITLE10=lilic
TTITLE11=GOOD FLIGHT!
TTITLE12=透明な,光
TTITLE13=flower
EXTD=YEAR: 2003
EXTT0=
EXTT1=
EXTT2=
EXTT3=
EXTT4=
EXTT5=
EXTT6=
EXTT7=
EXTT8=
EXTT9=
EXTT10=
EXTT11=
EXTT12=
EXTT13=
PLAYORDER=
